<?xml version="1.0" encoding="UTF-8"?>
<svg width="122px" height="29px" viewBox="0 0 122 29" version="1.1" xmlns="http://www.w3.org/2000/svg" xmlns:xlink="http://www.w3.org/1999/xlink">
    <defs></defs>
    <g id="Payment-Copy" stroke="none" stroke-width="1" fill="none" fill-rule="evenodd">
        <path d="M0,22.6456376 L0,1 L6.91620879,1 C9.53710102,1 11.2455088,1.10827632 12.0414835,1.32483221 C13.2645666,1.64966605 14.2886406,2.35592297 15.1137363,3.44362416 C15.938832,4.53132535 16.3513736,5.93645671 16.3513736,7.6590604 C16.3513736,8.98792611 16.1135555,10.1051409 15.6379121,11.0107383 C15.1622687,11.9163356 14.5580165,12.6275142 13.8251374,13.1442953 C13.0922582,13.6610764 12.3472565,14.0031312 11.5901099,14.1704698 C10.561167,14.3771822 9.0711636,14.4805369 7.12005495,14.4805369 L4.30989011,14.4805369 L4.30989011,22.6456376 L0,22.6456376 Z M4.30989011,4.66174497 L4.30989011,10.8040268 L6.66868132,10.8040268 C8.36740776,10.8040268 9.50311069,10.6908289 10.0758242,10.4644295 C10.6485377,10.2380302 11.0974801,9.88367132 11.4226648,9.40134228 C11.7478496,8.91901325 11.9104396,8.35794503 11.9104396,7.71812081 C11.9104396,6.93064483 11.6823283,6.2809869 11.2260989,5.76912752 C10.7698695,5.25726813 10.1923112,4.93736082 9.49340659,4.80939597 C8.97893516,4.71096148 7.94515429,4.66174497 6.39203297,4.66174497 L4.30989011,4.66174497 Z M30.0381868,22.6456376 L30.0381868,20.2979866 C29.4751803,21.1346798 28.7350321,21.794181 27.8177198,22.2765101 C26.9004075,22.7588391 25.932148,23 24.9129121,23 C23.8742622,23 22.9424034,22.7686824 22.1173077,22.3060403 C21.292212,21.8433981 20.6952399,21.1937402 20.3263736,20.357047 C19.9575073,19.5203538 19.7730769,18.3637658 19.7730769,16.8872483 L19.7730769,6.96510067 L23.8645604,6.96510067 L23.8645604,14.1704698 C23.8645604,16.3754025 23.9397886,17.7263957 24.0902473,18.2234899 C24.2407059,18.7205841 24.5149247,19.1143162 24.9129121,19.404698 C25.3108994,19.6950798 25.8156563,19.8402685 26.4271978,19.8402685 C27.1261024,19.8402685 27.752195,19.6458632 28.3054945,19.257047 C28.858794,18.8682307 29.2373616,18.3859089 29.4412088,17.8100671 C29.645056,17.2342253 29.746978,15.8241723 29.746978,13.5798658 L29.746978,6.96510067 L33.8384615,6.96510067 L33.8384615,22.6456376 L30.0381868,22.6456376 Z M37.9008242,22.6456376 L37.9008242,1 L41.9923077,1 L41.9923077,8.79597315 C43.2542188,7.3391426 44.7490756,6.61073826 46.4769231,6.61073826 C48.3600827,6.61073826 49.9180341,7.30223022 51.1508242,8.6852349 C52.3836142,10.0682396 53,12.0541258 53,14.642953 C53,17.3203713 52.3714806,19.3825431 51.1144231,20.8295302 C49.8573655,22.2765173 48.3309614,23 46.5351648,23 C45.6518271,23 44.7806362,22.7760649 43.9215659,22.3281879 C43.0624957,21.880311 42.3223474,21.2183489 41.7010989,20.3422819 L41.7010989,22.6456376 L37.9008242,22.6456376 Z M41.9631868,14.4657718 C41.9631868,16.089941 42.2155652,17.2908239 42.7203297,18.0684564 C43.4289413,19.1709227 44.3705069,19.7221477 45.5450549,19.7221477 C46.4478067,19.7221477 47.2170756,19.3308764 47.8528846,18.5483221 C48.4886937,17.7657679 48.8065934,16.5328943 48.8065934,14.8496644 C48.8065934,13.0581566 48.4862669,11.7662232 47.8456044,10.9738255 C47.2049419,10.1814278 46.384712,9.7852349 45.3848901,9.7852349 C44.4044823,9.7852349 43.5891058,10.1715845 42.9387363,10.9442953 C42.2883667,11.7170061 41.9631868,12.8908199 41.9631868,14.4657718 Z" id="Pub" fill="#44A705"></path>
        <path d="M59,23.619802 L59,0.396039604 L66.4390244,0.396039604 C69.2580372,0.396039604 71.0955884,0.512210059 71.951733,0.744554455 C73.2672723,1.09307105 74.3687589,1.85081925 75.2562259,3.01782178 C76.1436929,4.18482432 76.5874198,5.6924 76.5874198,7.54059406 C76.5874198,8.96634376 76.3316243,10.1650116 75.8200257,11.1366337 C75.3084271,12.1082557 74.6584977,12.8712844 73.8702182,13.4257426 C73.0819387,13.9802008 72.2806202,14.3471938 71.4662388,14.5267327 C70.3595152,14.748516 68.7568783,14.8594059 66.6582798,14.8594059 L63.6356868,14.8594059 L63.6356868,23.619802 L59,23.619802 Z M63.6356868,4.32475248 L63.6356868,10.9148515 L66.1727856,10.9148515 C67.9999236,10.9148515 69.2214775,10.7934006 69.837484,10.550495 C70.4534905,10.3075895 70.9363697,9.92739533 71.2861361,9.40990099 C71.6359025,8.89240665 71.8107831,8.29043248 71.8107831,7.6039604 C71.8107831,6.75907168 71.5654282,6.06204895 71.0747112,5.51287129 C70.5839941,4.96369362 69.9627765,4.62046273 69.2110398,4.48316832 C68.657678,4.37755723 67.5457508,4.32475248 65.8752246,4.32475248 L63.6356868,4.32475248 Z M89.9933248,18.2653465 L94.3784339,19.009901 C93.8146313,20.6363118 92.9245675,21.8745832 91.7082157,22.7247525 C90.4918638,23.5749217 88.9701418,24 87.1430039,24 C84.2509055,24 82.110576,23.044234 80.7219512,21.1326733 C79.6256685,19.6013125 79.0775353,17.6686585 79.0775353,15.3346535 C79.0775353,12.5465207 79.7979389,10.3630442 81.2387677,8.78415842 C82.6795964,7.20527263 84.5014866,6.41584158 86.7044929,6.41584158 C89.1789597,6.41584158 91.1313578,7.24223596 92.5617458,8.8950495 C93.9921338,10.547863 94.6759952,13.0798509 94.6133504,16.4910891 L83.5879332,16.4910891 C83.6192556,17.8112277 83.9742371,18.8382802 84.6528883,19.5722772 C85.3315396,20.3062743 86.1772307,20.6732673 87.1899872,20.6732673 C87.8790792,20.6732673 88.4585342,20.4831702 88.9283697,20.1029703 C89.3982052,19.7227704 89.7531866,19.1102352 89.9933248,18.2653465 Z M90.2439024,13.7663366 C90.2125801,12.4778813 89.8837002,11.4983532 89.2572529,10.8277228 C88.6308056,10.1570924 87.8686395,9.82178218 86.9707317,9.82178218 C86.0101792,9.82178218 85.2166912,10.175574 84.5902439,10.8831683 C83.9637966,11.5907626 83.655798,12.5518091 83.6662388,13.7663366 L90.2439024,13.7663366 Z M102.41258,23.619802 L98.01181,23.619802 L98.01181,6.7960396 L102.099358,6.7960396 L102.099358,9.18811881 C102.798891,8.05808016 103.427939,7.31353315 103.986521,6.95445545 C104.545103,6.59537774 105.179372,6.41584158 105.889345,6.41584158 C106.891661,6.41584158 107.857419,6.69570677 108.78665,7.25544554 L107.424134,11.1366337 C106.682838,10.6508227 105.993756,10.4079208 105.356868,10.4079208 C104.740861,10.4079208 104.21883,10.5795362 103.790757,10.9227723 C103.362685,11.2660083 103.025975,11.8864642 102.780616,12.7841584 C102.535258,13.6818527 102.41258,15.5617019 102.41258,18.4237624 L102.41258,23.619802 Z M108.755327,6.7960396 L111.19846,6.7960396 L111.19846,5.52871287 C111.19846,4.11352428 111.347239,3.05742923 111.644801,2.36039604 C111.942363,1.66336285 112.490497,1.09571176 113.289217,0.657425743 C114.087937,0.219139723 115.098068,0 116.319641,0 C117.572535,0 118.799309,0.190097109 120,0.57029703 L119.404878,3.67524752 C118.705345,3.50626978 118.031925,3.42178218 117.384596,3.42178218 C116.747708,3.42178218 116.29093,3.57227572 116.014249,3.87326733 C115.737568,4.17425893 115.59923,4.75247097 115.59923,5.60792079 L115.59923,6.7960396 L118.888062,6.7960396 L118.888062,10.2970297 L115.59923,10.2970297 L115.59923,23.619802 L111.19846,23.619802 L111.19846,10.2970297 L108.755327,10.2970297 L108.755327,6.7960396 Z" id="Perf" fill="#2F1136"></path>
    </g>
</svg>